<svg width="115" height="115" xmlns="http://www.w3.org/2000/svg" xmlns:xlink="http://www.w3.org/1999/xlink" xml:space="preserve" overflow="hidden"><defs><clipPath id="clip0"><rect x="781" y="225" width="115" height="115"/></clipPath><clipPath id="clip1"><rect x="782" y="226" width="113" height="114"/></clipPath><clipPath id="clip2"><rect x="795" y="229" width="89" height="111"/></clipPath><clipPath id="clip3"><rect x="795" y="229" width="89" height="111"/></clipPath><clipPath id="clip4"><rect x="795" y="229" width="89" height="111"/></clipPath></defs><g clip-path="url(#clip0)" transform="translate(-781 -225)"><g clip-path="url(#clip1)"><g clip-path="url(#clip2)"><g clip-path="url(#clip3)"><g clip-path="url(#clip4)"><path d="M2537.15 1142.97C2538.21 1144.16 2538.11 1145.98 2536.92 1147.05L2468.11 1208.75C2466.92 1209.82 2465.1 1209.72 2464.03 1208.53 2462.96 1207.34 2463.06 1205.51 2464.25 1204.45L2533.06 1142.74C2534.25 1141.68 2536.08 1141.78 2537.15 1142.97Z" fill="#767171" fill-rule="evenodd" fill-opacity="1" transform="matrix(1 0 0 1.01685 -1664.15 -922.3)"/><path d="M2519.93 1142.95 2547.01 1134.79 2535.95 1160.82Z" fill="#767171" fill-rule="evenodd" fill-opacity="1" transform="matrix(1 0 0 1.01685 -1664.15 -922.3)"/><path d="M2528 1185.25C2529.07 1186.44 2528.96 1188.26 2527.78 1189.33L2475.35 1236.34C2474.16 1237.41 2472.34 1237.3 2471.27 1236.12 2470.21 1234.93 2470.3 1233.1 2471.5 1232.03L2523.91 1185.03C2525.1 1183.96 2526.93 1184.06 2528 1185.25Z" stroke="#767171" stroke-width="3.40292" stroke-linecap="butt" stroke-linejoin="miter" stroke-miterlimit="8" stroke-opacity="1" fill="none" fill-rule="evenodd" transform="matrix(1 0 0 1.01685 -1664.15 -922.3)"/><path d="M2520.97 1176.33 2545.25 1170.67 2537 1194.2Z" stroke="#767171" stroke-width="3.40292" stroke-linecap="butt" stroke-linejoin="miter" stroke-miterlimit="8" stroke-opacity="1" fill="none" fill-rule="evenodd" transform="matrix(1 0 0 1.01685 -1664.15 -922.3)"/><path d="M0 0 41.0064 32.4698" stroke="#FFFFFF" stroke-width="2.55232" stroke-linecap="butt" stroke-linejoin="miter" stroke-miterlimit="8" stroke-opacity="1" fill="none" fill-rule="evenodd" transform="matrix(-0.998583 0.0532152 0.0523335 1.01541 867.517 280.131)"/></g></g></g></g></g></svg>