<svg id="close-menu" viewBox="0 0 100 100" xmlns="http://www.w3.org/2000/svg"
     xml:space="preserve" overflow="hidden"><defs><clipPath id="clip0"><rect x="546" y="228" width="114" height="113"/></clipPath><clipPath
        id="clip1"><rect x="547" y="228" width="113" height="113"/></clipPath><clipPath id="clip2"><rect x="547" y="228" width="113" height="113"/></clipPath><clipPath
        id="clip3"><rect x="547" y="228" width="113" height="113"/></clipPath><clipPath id="clip4"><rect x="547" y="228" width="113" height="113"/></clipPath></defs>
    <g clip-path="url(#clip0)" transform="translate(-546 -228)"><g clip-path="url(#clip1)"><g clip-path="url(#clip2)"><g clip-path="url(#clip3)"><g clip-path="url(#clip4)"><path d="M1836.56 382.296 1882.61 430.209" stroke="currentColor" stroke-width="14.0738" stroke-linecap="round" stroke-linejoin="miter" stroke-miterlimit="8" stroke-opacity="1" fill="none" fill-rule="evenodd" transform="matrix(1.02793 0 0 1 -1284.36 -98.1033)"/><path
            d="M0 0 46.1841 44.0699" stroke="currentColor" stroke-width="14.0738" stroke-linecap="round"
            stroke-linejoin="miter" stroke-miterlimit="8" stroke-opacity="1" fill="none" fill-rule="evenodd"
            transform="matrix(1.02793 0 0 -1 603.5 282.817)"/><path d="M1790.5 381.068 1836.55 428.981"
                                                                    stroke="currentColor"
                                                                    stroke-width="14.0738" stroke-linecap="round"
                                                                    stroke-linejoin="miter" stroke-miterlimit="8"
                                                                    stroke-opacity="1" fill="none" fill-rule="evenodd"
                                                                    transform="matrix(1.02793 0 0 1 -1284.36 -98.1033)"/><path
            d="M0 0 46.1841 44.0699" stroke="currentColor" stroke-width="14.0738" stroke-linecap="round"
            stroke-linejoin="miter" stroke-miterlimit="8" stroke-opacity="1" fill="none" fill-rule="evenodd"
            transform="matrix(1.02793 0 0 -1 556.154 281.589)"/></g></g></g></g></g></svg>