<svg id="diagrams" viewBox="0 0 100 100" xmlns="http://www.w3.org/2000/svg"
     xml:space="preserve" overflow="hidden"><defs><clipPath id="clip0"><rect x="545" y="66" width="115" height="115"/></clipPath><clipPath
        id="clip1"><rect x="546" y="67" width="114" height="114"/></clipPath><clipPath id="clip2"><rect x="546" y="67" width="114" height="114"/></clipPath><clipPath
        id="clip3"><rect x="546" y="67" width="114" height="114"/></clipPath><clipPath id="clip4"><rect x="546" y="67" width="114" height="114"/></clipPath></defs>
    <g clip-path="url(#clip0)" transform="translate(-545 -66)"><g clip-path="url(#clip1)"><g clip-path="url(#clip2)"><g clip-path="url(#clip3)"><g clip-path="url(#clip4)"><path d="M1365.82 984.506C1365.82 972.927 1375.2 963.54 1386.78 963.54 1398.36 963.54 1407.75 972.927 1407.75 984.506 1407.75 996.085 1398.36 1005.47 1386.78 1005.47 1375.2 1005.47 1365.82 996.085 1365.82 984.506Z" stroke="currentColor" stroke-width="6.00575" stroke-linecap="butt" stroke-linejoin="miter" stroke-miterlimit="8" stroke-opacity="1" fill="none" fill-rule="evenodd" transform="matrix(1 0 0 1.07407 -755.172 -902.704)"/><path
            d="M1364.16 941.286 1400.34 909.082 1410.33 956.478Z" stroke="currentColor" stroke-width="6.00575"
            stroke-linecap="butt" stroke-linejoin="miter" stroke-miterlimit="8" stroke-opacity="1" fill="none"
            fill-rule="evenodd" transform="matrix(1 0 0 1.07407 -755.172 -902.704)"/><path
            d="M1306.72 974.351 1327.7 938.08 1363.97 959.059 1342.99 995.329Z" stroke="currentColor"
            stroke-width="6.00575"
            stroke-linecap="butt" stroke-linejoin="miter" stroke-miterlimit="8" stroke-opacity="1" fill="none"
            fill-rule="nonzero" transform="matrix(1 0 0 1.07407 -755.172 -902.704)"/></g></g></g></g></g></svg>