<svg width="122" height="114" xmlns="http://www.w3.org/2000/svg" xmlns:xlink="http://www.w3.org/1999/xlink" xml:space="preserve" overflow="hidden"><defs><clipPath id="clip0"><rect x="54" y="64" width="122" height="114"/></clipPath><clipPath id="clip1"><rect x="55" y="65" width="121" height="113"/></clipPath><clipPath id="clip2"><rect x="55" y="65" width="121" height="113"/></clipPath><clipPath id="clip3"><rect x="55" y="65" width="121" height="113"/></clipPath><clipPath id="clip4"><rect x="55" y="65" width="121" height="113"/></clipPath><clipPath id="clip5"><rect x="55" y="65" width="90" height="90"/></clipPath><clipPath id="clip6"><rect x="61" y="73" width="81" height="82"/></clipPath><clipPath id="clip7"><rect x="61" y="73" width="81" height="103"/></clipPath><clipPath id="clip8"><rect x="61" y="73" width="81" height="103"/></clipPath><clipPath id="clip9"><rect x="86" y="88" width="90" height="90"/></clipPath><clipPath id="clip10"><rect x="90" y="96" width="81" height="82"/></clipPath><clipPath id="clip11"><rect x="90" y="96" width="81" height="104"/></clipPath><clipPath id="clip12"><rect x="90" y="96" width="81" height="104"/></clipPath></defs><g clip-path="url(#clip0)" transform="translate(-54 -64)"><g clip-path="url(#clip1)"><g clip-path="url(#clip2)"><g clip-path="url(#clip3)"><g clip-path="url(#clip4)"><g clip-path="url(#clip5)"><g clip-path="url(#clip6)"><g clip-path="url(#clip7)"><g clip-path="url(#clip8)"><path d="M206.552 184.893C206.552 182.694 208.299 180.912 210.454 180.912 212.608 180.912 214.355 182.694 214.355 184.893 214.355 187.093 212.608 188.875 210.454 188.875 208.299 188.875 206.552 187.093 206.552 184.893Z" fill="#767171" fill-rule="evenodd" fill-opacity="1" transform="matrix(1 0 0 1.03422 -123.177 -90.5657)"/><path d="M237.778 197.43C230.399 204.81 218.434 204.81 211.054 197.43" stroke="#767171" stroke-width="5.10939" stroke-linecap="round" stroke-linejoin="miter" stroke-miterlimit="8" stroke-opacity="1" fill="none" fill-rule="evenodd" transform="matrix(1 0 0 1.03422 -123.177 -90.5657)"/><path d="M188.556 172.693C188.556 167.117 193.076 162.598 198.651 162.598L250.126 162.598C255.7 162.598 260.221 167.117 260.221 172.693L260.221 206.012C260.221 211.588 255.7 216.107 250.126 216.107L198.651 216.107C193.076 216.107 188.556 211.588 188.556 206.012Z" stroke="#767171" stroke-width="7.29913" stroke-linecap="butt" stroke-linejoin="miter" stroke-miterlimit="8" stroke-opacity="1" fill="none" fill-rule="evenodd" transform="matrix(1 0 0 1.03422 -123.177 -90.5657)"/><path d="M199.704 216.107 199.932 229.169" stroke="#767171" stroke-width="7.29913" stroke-linecap="round" stroke-linejoin="miter" stroke-miterlimit="8" stroke-opacity="1" fill="none" fill-rule="evenodd" transform="matrix(1 0 0 1.03422 -123.177 -90.5657)"/><path d="M0 0 11.4243 12.3168" stroke="#767171" stroke-width="7.29913" stroke-linecap="round" stroke-linejoin="miter" stroke-miterlimit="8" stroke-opacity="1" fill="none" fill-rule="evenodd" transform="matrix(-1 0 0 1.03422 88.1109 133.595)"/><path d="M0 0 5.17686 5.32733" stroke="#FFFFFF" stroke-width="4.19699" stroke-linecap="square" stroke-linejoin="miter" stroke-miterlimit="8" stroke-opacity="1" fill="none" fill-rule="evenodd" transform="matrix(1 0 0 -1.03422 79.8713 172.704)"/><path d="M0 0 4.88115 5.5055" stroke="#FFFFFF" stroke-width="4.01451" stroke-linecap="square" stroke-linejoin="miter" stroke-miterlimit="8" stroke-opacity="1" fill="none" fill-rule="evenodd" transform="matrix(1 0 0 -1.03422 77.5621 125.866)"/><path d="M204.459 210.041 204.163 204.482" stroke="#FFFFFF" stroke-width="2.5547" stroke-linecap="square" stroke-linejoin="miter" stroke-miterlimit="8" stroke-opacity="1" fill="none" fill-rule="evenodd" transform="matrix(1 0 0 1.03422 -123.177 -90.5657)"/><path d="M214.542 210.841 200.78 224.841 202.343 205.273Z" fill="#FFFFFF" fill-rule="evenodd" fill-opacity="1" transform="matrix(1 0 0 1.03422 -123.177 -90.5657)"/><path d="M234.58 184.893C234.58 182.694 236.328 180.912 238.482 180.912 240.637 180.912 242.383 182.694 242.383 184.893 242.383 187.093 240.637 188.875 238.482 188.875 236.328 188.875 234.58 187.093 234.58 184.893Z" fill="#767171" fill-rule="evenodd" fill-opacity="1" transform="matrix(1 0 0 1.03422 -123.177 -90.5657)"/></g></g></g></g><path d="M52.884 56.274 115.712 56.274 115.712 97.858 52.884 97.858Z" fill="#FFFFFF" fill-rule="nonzero" fill-opacity="1" transform="matrix(1.00828 0 0 1 27.8832 39.236)"/><g clip-path="url(#clip9)"><g clip-path="url(#clip10)"><g clip-path="url(#clip11)"><g clip-path="url(#clip12)"><path d="M206.552 184.893C206.552 182.694 208.299 180.912 210.454 180.912 212.608 180.912 214.355 182.694 214.355 184.893 214.355 187.093 212.608 188.875 210.454 188.875 208.299 188.875 206.552 187.093 206.552 184.893Z" fill="#767171" fill-rule="evenodd" fill-opacity="1" transform="matrix(-1 0 0 1.03422 354.861 -67.5137)"/><path d="M237.778 197.43C230.399 204.81 218.434 204.81 211.054 197.43" stroke="#767171" stroke-width="5.10939" stroke-linecap="round" stroke-linejoin="miter" stroke-miterlimit="8" stroke-opacity="1" fill="none" fill-rule="evenodd" transform="matrix(-1 0 0 1.03422 354.861 -67.5137)"/><path d="M188.557 172.693C188.557 167.118 193.076 162.598 198.651 162.598L250.126 162.598C255.702 162.598 260.221 167.118 260.221 172.693L260.221 206.012C260.221 211.588 255.702 216.107 250.126 216.107L198.651 216.107C193.076 216.107 188.557 211.588 188.557 206.012Z" stroke="#767171" stroke-width="7.29913" stroke-linecap="butt" stroke-linejoin="miter" stroke-miterlimit="8" stroke-opacity="1" fill="none" fill-rule="evenodd" transform="matrix(-1 0 0 1.03422 354.861 -67.5137)"/><path d="M199.704 216.107 199.932 229.169" stroke="#767171" stroke-width="7.29913" stroke-linecap="round" stroke-linejoin="miter" stroke-miterlimit="8" stroke-opacity="1" fill="none" fill-rule="evenodd" transform="matrix(-1 0 0 1.03422 354.861 -67.5137)"/><path d="M0 0 11.4243 12.3168" stroke="#767171" stroke-width="7.29913" stroke-linecap="round" stroke-linejoin="miter" stroke-miterlimit="8" stroke-opacity="1" fill="none" fill-rule="evenodd" transform="matrix(1 0 0 1.03422 143.573 156.647)"/><path d="M0 0 5.17686 5.32733" stroke="#FFFFFF" stroke-width="4.19701" stroke-linecap="square" stroke-linejoin="miter" stroke-miterlimit="8" stroke-opacity="1" fill="none" fill-rule="evenodd" transform="matrix(-1 0 0 -1.03422 151.812 195.756)"/><path d="M0 0 4.88115 5.5055" stroke="#FFFFFF" stroke-width="4.01451" stroke-linecap="square" stroke-linejoin="miter" stroke-miterlimit="8" stroke-opacity="1" fill="none" fill-rule="evenodd" transform="matrix(-1 0 0 -1.03422 154.122 148.918)"/><path d="M204.459 210.041 204.163 204.482" stroke="#FFFFFF" stroke-width="2.5547" stroke-linecap="square" stroke-linejoin="miter" stroke-miterlimit="8" stroke-opacity="1" fill="none" fill-rule="evenodd" transform="matrix(-1 0 0 1.03422 354.861 -67.5137)"/><path d="M214.542 210.841 200.781 224.841 202.343 205.273Z" fill="#FFFFFF" fill-rule="evenodd" fill-opacity="1" transform="matrix(-1 0 0 1.03422 354.861 -67.5137)"/><path d="M234.58 184.893C234.58 182.694 236.328 180.912 238.482 180.912 240.637 180.912 242.385 182.694 242.385 184.893 242.385 187.093 240.637 188.875 238.482 188.875 236.328 188.875 234.58 187.093 234.58 184.893Z" fill="#767171" fill-rule="evenodd" fill-opacity="1" transform="matrix(-1 0 0 1.03422 354.861 -67.5137)"/></g></g></g></g></g></g></g></g></g></svg>