<svg id="icons" viewBox="0 0 100 100" xmlns="http://www.w3.org/2000/svg"
     xml:space="preserve" overflow="hidden"><defs><clipPath id="clip0"><rect x="48" y="546" width="116" height="115"/></clipPath><clipPath
        id="clip1"><rect x="49" y="547" width="114" height="114"/></clipPath><clipPath id="clip2"><rect x="49" y="547" width="114" height="114"/></clipPath><clipPath
        id="clip3"><rect x="49" y="547" width="114" height="114"/></clipPath></defs>
    <g clip-path="url(#clip0)" transform="translate(-48 -546)"><g clip-path="url(#clip1)"><g clip-path="url(#clip2)"><g clip-path="url(#clip3)"><path d="M91.249 548.948C121.67 540.772 152.959 558.805 161.135 589.227 169.311 619.648 151.278 650.937 120.857 659.113 90.4361 667.289 59.1468 649.256 50.9707 618.835 47.0412 604.214 49.0857 588.631 56.6538 575.519 64.1922 562.413 76.6421 552.851 91.249 548.948ZM77.3979 612.22C79.5836 615.074 82.1928 617.577 85.1353 619.642 91.5638 624.061 99.2114 626.364 107.011 626.229 114.642 626.187 122.053 623.674 128.136 619.066 130.665 617.122 132.88 614.8 134.704 612.183 134.767 612.092 134.89 612.067 134.982 612.127L137.135 614.251C137.196 614.324 137.196 614.43 137.135 614.502 134.084 619.81 129.864 624.353 124.796 627.787 119.568 631.278 113.454 633.208 107.169 633.354 100.793 633.453 94.5169 631.766 89.0503 628.483 83.3278 625.004 78.4735 620.267 74.856 614.632 74.8018 614.557 74.8018 614.456 74.856 614.381L77.064 612.192C77.1424 612.119 77.2639 612.119 77.3423 612.192ZM119.721 578.441C123.488 578.441 126.54 582.866 126.54 588.321 126.54 593.776 123.488 598.192 119.721 598.192 115.955 598.192 112.902 593.767 112.902 588.321 112.902 582.875 115.955 578.441 119.721 578.441ZM92.2788 578.441C96.0454 578.441 99.0977 582.866 99.0977 588.321 99.0977 593.776 96.0454 598.192 92.2788 598.192 88.5122 598.192 85.46 593.767 85.46 588.321 85.46 582.875 88.5122 578.441 92.2788 578.441ZM131.336 560.118C107.099 546.106 76.0921 554.395 62.0798 578.632 48.0676 602.869 56.3565 633.876 80.5936 647.888 104.831 661.901 135.838 653.612 149.85 629.375 156.585 617.726 158.411 603.878 154.929 590.882 151.468 577.898 142.979 566.828 131.336 560.118Z" fill="currentColor" fill-rule="nonzero" fill-opacity="1"/></g></g></g></g></svg>