<svg id="images" viewBox="0 0 100 100" xmlns="http://www.w3.org/2000/svg"
     xml:space="preserve" overflow="hidden"><defs><clipPath id="clip0"><rect x="781" y="546" width="115" height="115"/></clipPath><clipPath
        id="clip1"><rect x="782" y="547" width="113" height="114"/></clipPath><clipPath id="clip2"><rect x="782" y="547" width="113" height="114"/></clipPath><clipPath
        id="clip3"><rect x="782" y="547" width="113" height="114"/></clipPath></defs>
    <g clip-path="url(#clip0)" transform="translate(-781 -546)"><g clip-path="url(#clip1)"><g clip-path="url(#clip2)"><g clip-path="url(#clip3)"><path d="M21.1875 80.0417 90.6354 80.0417C91.3417 80.0417 91.8125 79.5708 91.8125 78.8646 91.8125 78.6292 91.8125 78.5115 91.6948 78.276L75.2156 50.026C74.9802 49.6729 74.6271 49.4375 74.1562 49.4375 73.6854 49.4375 73.3323 49.6729 73.0969 50.026L65.6813 63.7979 48.025 36.9604C47.9073 36.725 47.4365 36.4896 47.0833 36.4896 46.7302 36.4896 46.2594 36.725 46.1417 37.0781L32.1344 59.2073C32.0167 59.325 31.899 59.5604 31.7813 59.6781L20.1281 78.276C19.775 78.8646 19.8927 79.5708 20.4813 79.924 20.7167 79.924 20.9521 80.0417 21.1875 80.0417ZM74.1562 53.0865 88.6344 77.6875 74.7448 77.6875 67.0938 66.0344 74.1562 53.0865C74.1562 53.0865 74.1562 53.0865 74.1562 53.0865 74.1562 53.0865 74.1562 53.0865 74.1562 53.0865ZM58.9719 57.9125 51.7917 53.675C51.3208 53.4396 50.7323 53.4396 50.3792 53.9104L47.0833 57.2062 44.376 54.499C44.0229 54.1458 43.5521 54.0281 43.0812 54.2635L36.1365 57.324 47.0833 39.9031C47.0833 39.9031 47.0833 39.9031 47.0833 39.9031L58.9719 57.9125ZM33.9 60.9729 43.3167 56.7354 46.2594 59.6781C46.7302 60.149 47.4365 60.149 47.9073 59.6781L51.4385 56.1469 61.7969 62.15C61.7969 62.15 61.7969 62.15 61.7969 62.15L71.9198 77.6875 23.3062 77.6875 33.9 60.9729Z" fill="currentColor" fill-rule="nonzero" fill-opacity="1" transform="matrix(1 0 0 1.00885 782 547)"/><path
            d="M31.7813 41.1979C33.7823 41.1979 35.3125 39.6677 35.3125 37.6667 35.3125 35.6656 33.7823 34.1354 31.7813 34.1354 29.7802 34.1354 28.25 35.6656 28.25 37.6667 28.25 39.6677 29.7802 41.1979 31.7813 41.1979ZM31.7813 36.4896C32.4875 36.4896 32.9583 36.9604 32.9583 37.6667 32.9583 38.3729 32.4875 38.8438 31.7813 38.8438 31.075 38.8438 30.6042 38.3729 30.6042 37.6667 30.6042 36.9604 31.075 36.4896 31.7813 36.4896Z"
            fill="currentColor" fill-rule="nonzero" fill-opacity="1" transform="matrix(1 0 0 1.00885 782 547)"/><path
            d="M101.229 23.5417 11.7708 23.5417 11.7708 91.8125 101.229 91.8125 101.229 23.5417ZM98.875 89.4583 14.125 89.4583 14.125 25.8958 98.875 25.8958 98.875 89.4583Z"
            fill="currentColor" fill-rule="nonzero" fill-opacity="1" transform="matrix(1 0 0 1.00885 782 547)"/></g></g></g></g></svg>