<svg xmlns:xlink="http://www.w3.org/1999/xlink" width="240" height="70" xmlns="http://www.w3.org/2000/svg"
     xml:space="preserve" overflow="hidden"><defs><clipPath id="clip0"><rect x="981" y="478" width="240" height="70"/></clipPath><clipPath
        id="clip1"><rect x="982" y="479" width="239" height="68"/></clipPath><clipPath id="clip2"><rect x="982" y="479" width="239" height="68"/></clipPath><clipPath
        id="clip3"><rect x="982" y="479" width="239" height="68"/></clipPath><clipPath id="clip4"><rect x="982" y="479" width="239" height="68"/></clipPath></defs>
    <g clip-path="url(#clip0)" transform="translate(-981 -478)"><g clip-path="url(#clip1)"><g clip-path="url(#clip2)"><g clip-path="url(#clip3)"><g clip-path="url(#clip4)"><path d="M3956.81 1841.42C3956.81 1843.32 3955.26 1844.87 3953.36 1844.87L3750.35 1844.87C3748.45 1844.87 3746.9 1843.32 3746.9 1841.42 3746.9 1839.52 3748.45 1837.97 3750.35 1837.97L3953.36 1837.97C3955.26 1837.97 3956.81 1839.52 3956.81 1841.42Z" fill="currentColor" fill-rule="evenodd" fill-opacity="1" transform="matrix(1.01471 0 0 1 -2794 -1313.64)"/><path
            d="M3760.7 1857.68 3726.2 1841.42 3760.7 1825.16Z" fill="currentColor" fill-rule="evenodd" fill-opacity="1"
            transform="matrix(1.01471 0 0 1 -2794 -1313.64)"/><path
            d="M3803.57 1797.07 3896.2 1797.07 3896.2 1825.65 3803.57 1825.65Z" stroke="currentColor"
            stroke-width="1.12922"
            stroke-linecap="butt" stroke-linejoin="miter" stroke-miterlimit="8" stroke-dasharray="4.5169 3.38768"
            stroke-opacity="1" fill="none" fill-rule="nonzero" transform="matrix(1.01471 0 0 1 -2794 -1313.64)"/></g></g></g></g></g></svg>