<svg xmlns:xlink="http://www.w3.org/1999/xlink" width="285" height="69" xmlns="http://www.w3.org/2000/svg"
     xml:space="preserve" overflow="hidden"><defs><clipPath id="clip0"><rect x="981" y="592" width="285" height="69"/></clipPath><clipPath
        id="clip1"><rect x="982" y="593" width="284" height="68"/></clipPath><clipPath id="clip2"><rect x="982" y="593" width="284" height="68"/></clipPath><clipPath
        id="clip3"><rect x="982" y="593" width="284" height="68"/></clipPath><clipPath id="clip4"><rect x="982" y="593" width="284" height="68"/></clipPath></defs>
    <g clip-path="url(#clip0)" transform="translate(-981 -592)"><g clip-path="url(#clip1)"><g clip-path="url(#clip2)"><g clip-path="url(#clip3)"><g clip-path="url(#clip4)"><path d="M3875.01 1644.81C3875.01 1646.99 3873.25 1648.75 3871.07 1648.75L3669.04 1648.75C3666.87 1648.75 3665.1 1646.99 3665.1 1644.81 3665.1 1642.63 3666.87 1640.87 3669.04 1640.87L3871.07 1640.87C3873.25 1640.87 3875.01 1642.63 3875.01 1644.81Z" fill="currentColor" fill-rule="evenodd" fill-opacity="1" transform="matrix(1.01471 0 0 1 -2735 -1005.49)"/><path
            d="M3859.25 1629.04 3892.75 1644.81 3859.25 1660.58Z" fill="currentColor" fill-rule="evenodd"
            fill-opacity="1"
            transform="matrix(1.01471 0 0 1 -2735 -1005.49)"/><path
            d="M3734.58 1599.97 3827.22 1599.97 3827.22 1629.54 3734.58 1629.54Z" stroke="currentColor"
            stroke-width="1.12922" stroke-linecap="butt" stroke-linejoin="miter" stroke-miterlimit="8"
            stroke-dasharray="4.5169 3.38768" stroke-opacity="1" fill="none" fill-rule="nonzero"
            transform="matrix(1.01471 0 0 1 -2735 -1005.49)"/><path
            d="M3904.09 1627.57 3940.55 1627.57 3940.55 1664.03 3904.09 1664.03Z" stroke="currentColor"
            stroke-width="1.12922" stroke-linecap="butt" stroke-linejoin="miter" stroke-miterlimit="8"
            stroke-dasharray="4.5169 3.38768" stroke-opacity="1" fill="none" fill-rule="nonzero"
            transform="matrix(1.01471 0 0 1 -2735 -1005.49)"/></g></g></g></g></g></svg>