<svg id="pages" viewBox="0 0 100 100" xmlns="http://www.w3.org/2000/svg"
     xml:space="preserve" overflow="hidden"><defs><clipPath id="clip0"><rect x="546" y="546" width="114" height="115"/></clipPath><clipPath
        id="clip1"><rect x="547" y="547" width="113" height="114"/></clipPath><clipPath id="clip2"><rect x="547" y="547" width="113" height="114"/></clipPath><clipPath
        id="clip3"><rect x="547" y="547" width="113" height="114"/></clipPath></defs>
    <g clip-path="url(#clip0)" transform="translate(-546 -546)"><g clip-path="url(#clip1)"><g clip-path="url(#clip2)"><g clip-path="url(#clip3)"><path d="M17.6562 14.125C11.8352 14.125 7.0625 18.8977 7.0625 24.7188L7.0625 88.2812C7.0625 94.1022 11.8352 98.875 17.6562 98.875L95.3438 98.875C101.165 98.875 105.938 94.1022 105.938 88.2812L105.938 38.8438C105.938 33.0227 101.165 28.25 95.3438 28.25L48.003 28.25 43.3957 19.6977C41.5473 16.2493 37.9609 14.125 34.0711 14.125ZM17.6562 21.1875 34.0711 21.1875C35.3677 21.1875 36.5539 21.9048 37.1884 23.0359L40.0024 28.25 14.125 28.25 14.125 24.7188C14.125 22.7324 15.6699 21.1875 17.6562 21.1875ZM14.125 35.3125 95.3438 35.3125C97.3297 35.3125 98.875 36.8574 98.875 38.8438L98.875 88.2812C98.875 90.2672 97.3297 91.8125 95.3438 91.8125L17.6562 91.8125C15.6699 91.8125 14.125 90.2672 14.125 88.2812Z" fill="currentColor" fill-rule="nonzero" fill-opacity="1" transform="matrix(1 0 0 1.00885 547 547)"/></g></g></g></g></svg>