<svg id="recent" viewBox="0 0 100 100" xmlns="http://www.w3.org/2000/svg"
     xml:space="preserve" overflow="hidden"><defs><clipPath id="clip0"><rect x="1029" y="225" width="115" height="115"/></clipPath><clipPath
        id="clip1"><rect x="1030" y="226" width="114" height="113"/></clipPath><clipPath id="clip2"><rect x="1030" y="226" width="114" height="113"/></clipPath><clipPath
        id="clip3"><rect x="1030" y="226" width="114" height="113"/></clipPath></defs>
    <g clip-path="url(#clip0)" transform="translate(-1029 -225)"><g clip-path="url(#clip1)"><g clip-path="url(#clip2)"><g clip-path="url(#clip3)"><path d="M52.9688 7.0625C27.6707 7.0625 7.0625 27.6707 7.0625 52.9688 7.0625 78.2666 27.6707 98.875 52.9688 98.875 78.2666 98.875 98.875 78.2666 98.875 52.9688 98.875 27.6707 78.2666 7.0625 52.9688 7.0625ZM52.9688 14.125C74.4599 14.125 91.8125 31.4778 91.8125 52.9688 91.8125 74.4599 74.4599 91.8125 52.9688 91.8125 31.4778 91.8125 14.125 74.4599 14.125 52.9688 14.125 31.4778 31.4778 14.125 52.9688 14.125ZM49.4375 21.1875 49.4375 56.5 70.625 56.5 70.625 49.4375 56.5 49.4375 56.5 21.1875Z" fill="currentColor" fill-rule="nonzero" fill-opacity="1" transform="matrix(1.00885 0 0 1 1030 226)"/></g></g></g></g></svg>