<svg id="resize" viewBox="0 0 100 100" xmlns="http://www.w3.org/2000/svg"
     xml:space="preserve" overflow="hidden"><defs><clipPath id="clip0"><rect x="48" y="225" width="116" height="115"/></clipPath><clipPath
        id="clip1"><rect x="49" y="226" width="114" height="114"/></clipPath><clipPath id="clip2"><rect x="49" y="239" width="114" height="86"/></clipPath><clipPath
        id="clip3"><rect x="49" y="239" width="114" height="86"/></clipPath><clipPath id="clip4"><rect x="49" y="239" width="114" height="86"/></clipPath></defs>
    <g clip-path="url(#clip0)" transform="translate(-48 -225)"><g clip-path="url(#clip1)"><g clip-path="url(#clip2)"><g clip-path="url(#clip3)"><g clip-path="url(#clip4)"><path d="M44.2061 142.622C44.2061 135.708 49.8113 130.103 56.7255 130.103L136.272 130.103C143.186 130.103 148.791 135.708 148.791 142.622L148.791 192.697C148.791 199.612 143.186 205.217 136.272 205.217L56.7255 205.217C49.8113 205.217 44.2061 199.612 44.2061 192.697Z" stroke="currentColor" stroke-width="8.23623" stroke-linecap="butt" stroke-linejoin="miter" stroke-miterlimit="8" stroke-opacity="1" fill="none" fill-rule="evenodd" transform="matrix(1.00378 0 0 1 9.31646 114.379)"/><path
            d="M58.9415 192.279 78.7085 192.279" stroke="currentColor" stroke-width="5.76536" stroke-linecap="round"
            stroke-linejoin="miter" stroke-miterlimit="8" stroke-opacity="1" fill="none" fill-rule="evenodd"
            transform="matrix(1.00378 0 0 1 9.31646 114.379)"/><path d="M0 0 6.48522e-05 14.6601" stroke="currentColor"
                                                                     stroke-width="5.76536" stroke-linecap="round"
                                                                     stroke-linejoin="miter" stroke-miterlimit="8"
                                                                     stroke-opacity="1" fill="none" fill-rule="evenodd"
                                                                     transform="matrix(1.00378 0 0 -1 68.481 306.583)"/><path
            d="M112.851 143.58 132.618 143.58" stroke="currentColor" stroke-width="5.76536" stroke-linecap="round"
            stroke-linejoin="miter" stroke-miterlimit="8" stroke-opacity="1" fill="none" fill-rule="evenodd"
            transform="matrix(1.00378 0 0 1 9.31646 114.379)"/><path d="M0 0 6.48522e-05 14.6601" stroke="currentColor"
                                                                     stroke-width="5.76536" stroke-linecap="round"
                                                                     stroke-linejoin="miter" stroke-miterlimit="8"
                                                                     stroke-opacity="1" fill="none" fill-rule="evenodd"
                                                                     transform="matrix(1.00378 -1.22465e-16 -1.22928e-16 -1 142.437 272.62)"/></g></g></g></g></g></svg>