<svg id="search" viewBox="0 0 120 120" xmlns="http://www.w3.org/2000/svg"
     xml:space="preserve" overflow="hidden"><defs><clipPath id="clip0"><rect x="781" y="388" width="115" height="114"/></clipPath><clipPath
        id="clip1"><rect x="782" y="389" width="113" height="113"/></clipPath><clipPath id="clip2"><rect x="782" y="389" width="113" height="113"/></clipPath><clipPath
        id="clip3"><rect x="782" y="389" width="113" height="113"/></clipPath></defs>
    <g clip-path="url(#clip0)" transform="translate(-781 -388)"><g clip-path="url(#clip1)"><g clip-path="url(#clip2)"><g clip-path="url(#clip3)"><path d="M856.156 396.062C838.638 396.062 824.375 410.325 824.375 427.844 824.375 435.32 827.079 442.134 831.438 447.569L796.291 482.716 801.256 487.737 836.431 452.562C841.866 456.921 848.68 459.625 856.156 459.625 873.675 459.625 887.938 445.362 887.938 427.844 887.938 410.325 873.675 396.062 856.156 396.062ZM856.156 403.125C869.84 403.125 880.875 414.16 880.875 427.844 880.875 441.527 869.84 452.562 856.156 452.562 842.473 452.562 831.438 441.527 831.438 427.844 831.438 414.16 842.473 403.125 856.156 403.125Z" fill="currentColor" fill-rule="nonzero" fill-opacity="1"/></g></g></g></g></svg>