<svg xmlns:xlink="http://www.w3.org/1999/xlink" width="271" height="69" xmlns="http://www.w3.org/2000/svg"
     xml:space="preserve" overflow="hidden"><defs><clipPath id="clip0"><rect x="981" y="365" width="271" height="69"/></clipPath><clipPath
        id="clip1"><rect x="982" y="366" width="270" height="68"/></clipPath><clipPath id="clip2"><rect x="982" y="366" width="270" height="68"/></clipPath><clipPath
        id="clip3"><rect x="982" y="366" width="270" height="68"/></clipPath><clipPath id="clip4"><rect x="982" y="366" width="270" height="68"/></clipPath></defs>
    <g clip-path="url(#clip0)" transform="translate(-981 -365)"><g clip-path="url(#clip1)"><g clip-path="url(#clip2)"><g clip-path="url(#clip3)"><g clip-path="url(#clip4)"><path d="M3729.65 2030.64 3822.29 2030.64 3822.29 2060.2 3729.65 2060.2Z" stroke="currentColor" stroke-width="1.12922" stroke-linecap="butt" stroke-linejoin="miter" stroke-miterlimit="8" stroke-dasharray="4.5169 3.38768" stroke-opacity="1" fill="none" fill-rule="nonzero" transform="matrix(1.01471 0 0 1 -2744 -1661.19)"/><path
            d="M3899.16 2058.23 3935.62 2058.23 3935.62 2094.7 3899.16 2094.7Z" stroke="currentColor"
            stroke-width="1.12922"
            stroke-linecap="butt" stroke-linejoin="miter" stroke-miterlimit="8" stroke-dasharray="4.5169 3.38768"
            stroke-opacity="1" fill="none" fill-rule="nonzero" transform="matrix(1.01471 0 0 1 -2744 -1661.19)"/><path
            d="M3675.94 2071.04 3858.55 2071.04 3858.55 2063.65 3885.85 2078.43 3858.55 2093.22 3858.55 2085.83 3675.94 2085.83Z"
            stroke="currentColor" stroke-width="2.25846" stroke-linecap="butt" stroke-linejoin="miter"
            stroke-miterlimit="8"
            stroke-opacity="1" fill="none" fill-rule="evenodd" transform="matrix(1.01471 0 0 1 -2744 -1661.19)"/></g></g></g></g></g></svg>