<svg width="688" height="450" xmlns="http://www.w3.org/2000/svg" xmlns:xlink="http://www.w3.org/1999/xlink" xml:space="preserve" overflow="hidden"><defs><clipPath id="clip0"><rect x="1686" y="957" width="688" height="450"/></clipPath></defs><g clip-path="url(#clip0)" transform="translate(-1686 -957)"><path d="M1703 1041.5C1703 1003.12 1734.12 972 1772.5 972L2288.5 972C2326.88 972 2358 1003.12 2358 1041.5L2358 1319.5C2358 1357.88 2326.88 1389 2288.5 1389L1772.5 1389C1734.12 1389 1703 1357.88 1703 1319.5Z" stroke="#767171" stroke-width="27.5" stroke-linecap="butt" stroke-linejoin="miter" stroke-miterlimit="8" stroke-opacity="1" fill="none" fill-rule="evenodd"/><path d="M0 3.66671C-4.45597e-16 1.64164 1.64164 0 3.6667 0L108.333 0C110.358 -4.45597e-16 112 1.64164 112 3.66671L112 18.3333C112 20.3584 110.358 22 108.333 22L3.6667 22C1.64164 22 0 20.3584 0 18.3333Z" fill="#767171" fill-rule="evenodd" fill-opacity="1" transform="matrix(6.12323e-17 1 1 -6.12323e-17 1776 1220)"/><path d="M0 3.50001C-8.91194e-16 1.56701 1.567 0 3.5 0L108.5 0C110.433 -8.91197e-16 112 1.56701 112 3.50001L112 17.5C112 19.433 110.433 21 108.5 21L3.5 21C1.567 21 4.45597e-16 19.433 0 17.5Z" fill="#767171" fill-rule="evenodd" fill-opacity="1" transform="matrix(-1 1.22465e-16 1.22465e-16 1 1889 1311)"/><path d="M0 3.66671C-8.99151e-16 1.64164 1.64164 0 3.6667 0L109.333 0C111.358 -8.99154e-16 113 1.64164 113 3.66671L113 18.3333C113 20.3584 111.358 22 109.333 22L3.6667 22C1.64164 22 0 20.3584 0 18.3333Z" fill="#767171" fill-rule="evenodd" fill-opacity="1" transform="matrix(-1.83697e-16 -1 -1 1.83697e-16 2286 1148)"/><path d="M0 3.66671C-4.45596e-16 1.64164 1.64163 0 3.66669 0L108.333 0C110.358 -4.45597e-16 112 1.64164 112 3.66671L112 18.3333C112 20.3584 110.358 22 108.333 22L3.66669 22C1.64163 22 0 20.3584 0 18.3333Z" fill="#767171" fill-rule="evenodd" fill-opacity="1" transform="matrix(1 0 0 -1 2172 1057)"/><text fill="#767171" fill-opacity="1" font-family="Consolas,Consolas_MSFontService,sans-serif" font-style="normal" font-variant="normal" font-weight="700" font-stretch="normal" font-size="128" text-anchor="start" direction="ltr" writing-mode="lr-tb" unicode-bidi="normal" text-decoration="none" transform="matrix(1 0 0 1 1887.68 1229)">16:<tspan fill="#767171" fill-opacity="1" font-family="Consolas,Consolas_MSFontService,sans-serif" font-style="normal" font-variant="normal" font-weight="700" font-stretch="normal" font-size="128" text-anchor="start" direction="ltr" writing-mode="lr-tb" unicode-bidi="normal" text-decoration="none" x="211.406" y="0">9</tspan></text></g></svg>