<svg width="247" height="206" xmlns="http://www.w3.org/2000/svg" xmlns:xlink="http://www.w3.org/1999/xlink" xml:space="preserve" overflow="hidden"><defs><clipPath id="clip0"><rect x="802" y="1576" width="247" height="206"/></clipPath></defs><g clip-path="url(#clip0)" transform="translate(-802 -1576)"><path d="M0 3.66667C-4.79414e-16 1.64162 1.64162 -4.79415e-16 3.66666 -4.79415e-16L237.333 0C239.358 -4.79415e-16 241 1.64162 241 3.66667L241 18.3333C241 20.3584 239.358 22 237.333 22L3.66666 22C1.64162 22 0 20.3584 0 18.3333Z" fill="#767171" fill-rule="evenodd" fill-opacity="1" transform="matrix(1 0 0 -1 806 1602)"/><path d="M0 3.66667C-4.79414e-16 1.64162 1.64162 -4.79415e-16 3.66666 -4.79415e-16L237.333 0C239.358 -4.79415e-16 241 1.64162 241 3.66667L241 18.3333C241 20.3584 239.358 22 237.333 22L3.66666 22C1.64162 22 0 20.3584 0 18.3333Z" fill="#767171" fill-rule="evenodd" fill-opacity="1" transform="matrix(1 0 0 -1 806 1692)"/><path d="M0 3.66667C-4.79414e-16 1.64162 1.64162 -4.79415e-16 3.66666 -4.79415e-16L237.333 0C239.358 -4.79415e-16 241 1.64162 241 3.66667L241 18.3333C241 20.3584 239.358 22 237.333 22L3.66666 22C1.64162 22 0 20.3584 0 18.3333Z" fill="#767171" fill-rule="evenodd" fill-opacity="1" transform="matrix(1 0 0 -1 806 1781)"/></g></svg>