<svg id="help" viewBox="0 0 120 120" xmlns="http://www.w3.org/2000/svg"
     xml:space="preserve" overflow="hidden"><defs><clipPath id="clip0"><rect x="781" y="72" width="115" height="114"/></clipPath><clipPath
        id="clip1"><rect x="782" y="72" width="113" height="114"/></clipPath><clipPath id="clip2"><rect x="782" y="72" width="113" height="114"/></clipPath><clipPath
        id="clip3"><rect x="782" y="72" width="113" height="114"/></clipPath><clipPath id="clip4"><rect x="782" y="72" width="113" height="114"/></clipPath><clipPath
        id="clip5"><rect x="799" y="90" width="78" height="79"/></clipPath><clipPath id="clip6"><rect x="799" y="90" width="78" height="79"/></clipPath><clipPath
        id="clip7"><rect x="799" y="90" width="78" height="79"/></clipPath></defs>
    <g clip-path="url(#clip0)" transform="translate(-781 -72)"><g clip-path="url(#clip1)"><g clip-path="url(#clip2)"><g clip-path="url(#clip3)"><g clip-path="url(#clip4)"><path d="M897.534 355.935C897.534 327.876 920.279 305.131 948.338 305.131 976.397 305.131 999.142 327.876 999.142 355.935 999.142 383.994 976.397 406.738 948.338 406.738 920.279 406.738 897.534 383.994 897.534 355.935Z" stroke="currentColor" stroke-width="9.87851" stroke-linecap="butt" stroke-linejoin="miter" stroke-miterlimit="8" stroke-opacity="1" fill="none" fill-rule="evenodd" transform="matrix(1 0 0 1.00885 -109.684 -229.619)"/><g
            clip-path="url(#clip5)"><g clip-path="url(#clip6)"><g clip-path="url(#clip7)"><path d="M43.4456 62.3923C43.4456 65.3005 41.088 67.6581 38.1798 67.6581 35.2717 67.6581 32.9141 65.3005 32.9141 62.3923 32.9141 59.4842 35.2717 57.1266 38.1798 57.1266 41.088 57.1266 43.4456 59.4842 43.4456 62.3923Z" fill="currentColor" fill-rule="nonzero" fill-opacity="1" transform="matrix(1 0 0 1.01292 799.858 90.9482)"/><path
            d="M41.3614 43.2307 41.3614 53.2926 34.9983 53.2926 34.9983 37.1299 38.1798 37.1299C45.2114 37.1299 49.761 32.9938 49.761 26.5986 49.9032 20.3447 44.9488 15.1596 38.695 15.0174 38.5231 15.0135 38.3516 15.0135 38.1798 15.0174 30.9257 15.0174 26.5986 19.7899 26.5986 27.0441L20.2831 27.0441C20.2831 16.3378 27.4418 8.70183 38.1798 8.70183 47.9579 8.59579 55.9707 16.4366 56.0766 26.2148 56.0782 26.3427 56.0782 26.4707 56.0766 26.5986 56.0766 35.4992 50.1905 41.9898 41.3614 43.2307Z"
            fill="currentColor" fill-rule="nonzero" fill-opacity="1" transform="matrix(1 0 0 1.01292 799.858 90.9482)"/></g></g></g></g></g></g></g></g></svg>