<svg id="settings" viewBox="0 0 120 120" xmlns="http://www.w3.org/2000/svg"
     xml:space="preserve" overflow="hidden"><defs><clipPath id="clip0"><rect x="296" y="546" width="113" height="115"/></clipPath><clipPath
        id="clip1"><rect x="296" y="547" width="113" height="114"/></clipPath><clipPath id="clip2"><rect x="296" y="547" width="113" height="114"/></clipPath></defs>
    <g clip-path="url(#clip0)" transform="translate(-296 -546)"><g clip-path="url(#clip1)"><g clip-path="url(#clip2)"><path d="M71.9837 89.9796C62.0859 89.9796 53.9878 81.8814 53.9878 71.9837 53.9878 62.0859 62.0859 53.9878 71.9837 53.9878 81.8814 53.9878 89.9796 62.0859 89.9796 71.9837 89.9796 81.8814 81.8814 89.9796 71.9837 89.9796ZM112.475 60.7362C111.575 57.437 110.225 54.2877 108.575 51.4383L112.325 40.1909 103.776 31.6428 92.529 35.392C89.5297 33.7424 86.3804 32.3927 83.0812 31.4929L77.9823 20.9952 65.9851 20.9952 60.7362 31.4929C57.437 32.3927 54.2877 33.7424 51.4383 35.392L40.1909 31.6428 31.6428 40.1909 35.392 51.4383C33.7424 54.4377 32.3927 57.587 31.4929 60.8862L20.9952 65.9851 20.9952 77.9823 31.4929 83.2311C32.3927 86.5304 33.7424 89.6797 35.392 92.529L31.6428 103.776 40.1909 112.325 51.4383 108.575C54.4377 110.225 57.587 111.575 60.8862 112.475L66.135 122.972 78.1323 122.972 83.3811 112.475C86.6804 111.575 89.8297 110.225 92.679 108.575L103.926 112.325 112.475 103.776 108.725 92.529C110.375 89.5297 111.725 86.3804 112.624 83.0812L123.122 77.8324 123.122 65.8351 112.475 60.7362Z" fill="currentColor" fill-rule="nonzero" fill-opacity="1" transform="matrix(1 0 0 1.0216 281.001 530.102)"/></g></g></g></svg>