<svg id="share" viewBox="0 0 120 120" xmlns="http://www.w3.org/2000/svg"
     xml:space="preserve" overflow="hidden"><defs><clipPath id="clip0"><rect x="48" y="386" width="116" height="114"/></clipPath><clipPath
        id="clip1"><rect x="49" y="387" width="114" height="113"/></clipPath><clipPath id="clip2"><rect x="49" y="387" width="114" height="113"/></clipPath><clipPath
        id="clip3"><rect x="49" y="387" width="114" height="113"/></clipPath><clipPath id="clip4"><rect x="49" y="387" width="114" height="113"/></clipPath></defs>
    <g clip-path="url(#clip0)" transform="translate(-48 -386)"><g clip-path="url(#clip1)"><g clip-path="url(#clip2)"><g clip-path="url(#clip3)"><g clip-path="url(#clip4)"><path d="M930.834 131.464C930.834 121.946 938.55 114.231 948.068 114.231 957.585 114.231 965.301 121.946 965.301 131.464 965.301 140.982 957.585 148.697 948.068 148.697 938.55 148.697 930.834 140.982 930.834 131.464Z" fill="currentColor" fill-rule="evenodd" fill-opacity="1" transform="matrix(1.01996 0 0 1 -822.07 273.261)"/><path
            d="M872.488 171.346 947.967 208.585" stroke="currentColor" stroke-width="7.8985" stroke-linecap="round"
            stroke-linejoin="miter" stroke-miterlimit="8" stroke-opacity="1" fill="none" fill-rule="evenodd"
            transform="matrix(1.01996 0 0 1 -822.07 273.261)"/><path
            d="M855.255 171.346C855.255 161.829 862.97 154.113 872.488 154.113 882.006 154.113 889.721 161.829 889.721 171.346 889.721 180.864 882.006 188.58 872.488 188.58 862.97 188.58 855.255 180.864 855.255 171.346Z"
            fill="currentColor" fill-rule="evenodd" fill-opacity="1" transform="matrix(1.01996 0 0 1 -822.07 273.261)"/><path
            d="M930.834 208.521C930.834 199.003 938.55 191.288 948.068 191.288 957.585 191.288 965.301 199.003 965.301 208.521 965.301 218.038 957.585 225.754 948.068 225.754 938.55 225.754 930.834 218.038 930.834 208.521Z"
            fill="currentColor" fill-rule="evenodd" fill-opacity="1" transform="matrix(1.01996 0 0 1 -822.07 273.261)"/><path
            d="M0 0 74.3427 37.239" stroke="currentColor" stroke-width="7.8985" stroke-linecap="round"
            stroke-linejoin="miter" stroke-miterlimit="8" stroke-opacity="1" fill="none" fill-rule="evenodd"
            transform="matrix(1.01996 0 0 -1 67.8326 444.426)"/></g></g></g></g></g></svg>