<svg id="trash" viewBox="0 0 100 100" xmlns="http://www.w3.org/2000/svg"
     xml:space="preserve" overflow="hidden"><defs><clipPath id="clip0"><rect x="1017" y="66" width="115" height="115"/></clipPath><clipPath
        id="clip1"><rect x="1018" y="67" width="113" height="114"/></clipPath><clipPath id="clip2"><rect x="1018" y="67" width="113" height="114"/></clipPath><clipPath
        id="clip3"><rect x="1018" y="67" width="113" height="114"/></clipPath></defs>
    <g clip-path="url(#clip0)" transform="translate(-1017 -66)"><g clip-path="url(#clip1)"><g clip-path="url(#clip2)"><g clip-path="url(#clip3)"><path d="M45.8786 7.0625C40.0852 7.0625 35.3125 11.8352 35.3125 17.6286L35.3125 21.1875 14.125 21.1875 14.125 28.25 21.1875 28.25 21.1875 88.2812C21.1875 94.1022 25.9602 98.875 31.7812 98.875L74.1562 98.875C79.9772 98.875 84.75 94.1022 84.75 88.2812L84.75 28.25 91.8125 28.25 91.8125 21.1875 70.625 21.1875 70.625 17.6286C70.625 11.8352 65.8523 7.0625 60.0589 7.0625ZM45.8786 14.125 60.0589 14.125C62.0452 14.125 63.5625 15.6423 63.5625 17.6286L63.5625 21.1875 42.375 21.1875 42.375 17.6286C42.375 15.6423 43.8923 14.125 45.8786 14.125ZM28.25 28.25 77.6875 28.25 77.6875 88.2812C77.6875 90.2672 76.1422 91.8125 74.1562 91.8125L31.7812 91.8125C29.7949 91.8125 28.25 90.2672 28.25 88.2812ZM35.3125 35.3125 35.3125 84.75 42.375 84.75 42.375 35.3125ZM49.4375 35.3125 49.4375 84.75 56.5 84.75 56.5 35.3125ZM63.5625 35.3125 63.5625 84.75 70.625 84.75 70.625 35.3125Z" fill="currentColor" fill-rule="nonzero" fill-opacity="1" transform="matrix(1 0 0 1.00885 1018 67)"/></g></g></g></g></svg>