<svg id="enlarge" viewBox="0 0 100 120" xmlns="http://www.w3.org/2000/svg"
     xml:space="preserve" overflow="hidden"><defs><clipPath id="clip0"><rect x="297" y="225" width="115" height="115"/></clipPath><clipPath
        id="clip1"><rect x="298" y="226" width="113" height="114"/></clipPath><clipPath id="clip2"><rect x="298" y="226" width="113" height="114"/></clipPath><clipPath
        id="clip3"><rect x="298" y="226" width="113" height="114"/></clipPath><clipPath id="clip4"><rect x="298" y="226" width="113" height="114"/></clipPath></defs>
    <g clip-path="url(#clip0)" transform="translate(-297 -225)"><g clip-path="url(#clip1)"><g clip-path="url(#clip2)"><g clip-path="url(#clip3)"><g clip-path="url(#clip4)"><path d="M2023.24 517.34C2023.24 512.67 2027.02 508.884 2031.69 508.884L2123.94 508.884C2128.61 508.884 2132.39 512.67 2132.39 517.34 2132.39 522.01 2128.61 525.796 2123.94 525.796L2031.69 525.796C2027.02 525.796 2023.24 522.01 2023.24 517.34Z" fill="currentColor" fill-rule="evenodd" fill-opacity="1" transform="matrix(1 0 0 1.00885 -1723.7 -239.306)"/><path
            d="M2077.82 462.762C2082.49 462.762 2086.27 466.548 2086.27 471.218L2086.27 564.231C2086.27 568.901 2082.49 572.687 2077.82 572.687 2073.14 572.687 2069.36 568.901 2069.36 564.231L2069.36 471.218C2069.36 466.548 2073.14 462.762 2077.82 462.762Z"
            fill="currentColor" fill-rule="evenodd" fill-opacity="1"
            transform="matrix(1 0 0 1.00885 -1723.7 -239.306)"/></g></g></g></g></g></svg>