<svg id="more" viewBox="20 0 120 110" xmlns="http://www.w3.org/2000/svg"
     xml:space="preserve" overflow="hidden"><defs><clipPath id="clip0"><rect x="545" y="388" width="115" height="114"/></clipPath><clipPath
        id="clip1"><rect x="546" y="389" width="114" height="113"/></clipPath><clipPath id="clip2"><rect x="546" y="432" width="114" height="27"/></clipPath><clipPath
        id="clip3"><rect x="546" y="432" width="114" height="27"/></clipPath><clipPath id="clip4"><rect x="546" y="432" width="114" height="27"/></clipPath></defs>
    <g clip-path="url(#clip0)" transform="translate(-545 -388)"><g clip-path="url(#clip1)"><g clip-path="url(#clip2)"><g clip-path="url(#clip3)"><g clip-path="url(#clip4)"><path d="M0 11.9996C-3.05543e-15 5.37241 5.37241 0 11.9996 0 18.6268-3.05543e-15 23.9993 5.37241 23.9993 11.9996 23.9993 18.6268 18.6268 23.9993 11.9996 23.9993 5.37241 23.9993-4.58314e-15 18.6268 0 11.9996Z" fill="currentColor" fill-rule="evenodd" fill-opacity="1" transform="matrix(1.05003 0 0 -1 546.8 457.345)"/><path
            d="M0 11.9996C-3.05543e-15 5.37241 5.37241 0 11.9996 0 18.6268-3.05543e-15 23.9993 5.37241 23.9993 11.9996 23.9993 18.6268 18.6268 23.9993 11.9996 23.9993 5.37241 23.9993-4.58314e-15 18.6268 0 11.9996Z"
            fill="currentColor" fill-rule="evenodd" fill-opacity="1" transform="matrix(1.05003 0 0 -1 590.8 457.345)"/><path
            d="M0 11.9996C-3.05543e-15 5.37241 5.37241 0 11.9996 0 18.6268-3.05543e-15 23.9993 5.37241 23.9993 11.9996 23.9993 18.6268 18.6268 23.9993 11.9996 23.9993 5.37241 23.9993-4.58314e-15 18.6268 0 11.9996Z"
            fill="currentColor" fill-rule="evenodd" fill-opacity="1" transform="matrix(1.05003 0 0 -1 634.8 457.345)"/></g></g></g></g></g></svg>